<?xml version="1.0" encoding="utf-8"?>
<!-- Generator: Adobe Illustrator 15.1.0, SVG Export Plug-In  -->
<!DOCTYPE svg PUBLIC "-//W3C//DTD SVG 1.1//EN" "http://www.w3.org/Graphics/SVG/1.1/DTD/svg11.dtd" [
	<!ENTITY ns_flows "http://ns.adobe.com/Flows/1.0/">
]>
<svg version="1.1"
	 xmlns="http://www.w3.org/2000/svg" xmlns:xlink="http://www.w3.org/1999/xlink" xmlns:a="http://ns.adobe.com/AdobeSVGViewerExtensions/3.0/"
	 x="0px" y="0px" width="172px" height="250px" viewBox="0 0 172 250" enable-background="new 0 0 172 250" xml:space="preserve">
<defs>
</defs>
<g opacity="0.5">
	<path fill="#FFFFFF" d="M172,249.5c0,0.3-0.2,0.5-0.3,0.5H0.3c-0.2,0-0.3-0.2-0.3-0.5V0.5C0,0.2,0.1,0,0.3,0h171.3
		c0.2,0,0.3,0.2,0.3,0.5V249.5z"/>
</g>
<path fill="#FFFFFF" stroke="#AA2322" stroke-width="2" stroke-linecap="round" stroke-linejoin="round" stroke-miterlimit="10" d="
	M156,66c0,38.7-31.3,70-70,70s-70-31.3-70-70"/>
<path fill="none" stroke="#A3A3A3" stroke-width="2" stroke-linecap="round" stroke-linejoin="round" stroke-miterlimit="10" d="
	M46,65.9c1.4,20.9,18.8,37.3,40,37.3s38.6-16.5,40-37.3"/>
<polyline fill="none" stroke="#A3A3A3" stroke-width="0.6" stroke-linecap="round" stroke-linejoin="round" stroke-miterlimit="10" points="
	89.9,65.2 89,65.4 17.1,78 "/>
<line fill="none" stroke="#A3A3A3" stroke-width="0.6" stroke-linecap="round" stroke-linejoin="round" stroke-miterlimit="10" x1="86.3" y1="65.6" x2="32.4" y2="110.9"/>
<line fill="none" stroke="#A3A3A3" stroke-width="0.6" stroke-linecap="round" stroke-linejoin="round" stroke-miterlimit="10" x1="87.1" y1="62.3" x2="65" y2="132.6"/>
<line fill="none" stroke="#A3A3A3" stroke-width="0.6" stroke-linecap="round" stroke-linejoin="round" stroke-miterlimit="10" x1="84.8" y1="62.2" x2="107" y2="132.6"/>
<line fill="none" stroke="#A3A3A3" stroke-width="0.6" stroke-linecap="round" stroke-linejoin="round" stroke-miterlimit="10" x1="86" y1="65.8" x2="139.6" y2="110.9"/>
<line fill="none" stroke="#A3A3A3" stroke-width="0.6" stroke-linecap="round" stroke-linejoin="round" stroke-miterlimit="10" x1="82.4" y1="65.2" x2="154.9" y2="78"/>
<path fill="none" stroke="#AA2322" stroke-width="2" stroke-miterlimit="10" d="M156,66c0,38.7-31.3,70-70,70s-70-31.3-70-70"/>
<line fill="none" stroke="#666666" stroke-width="2" stroke-linecap="round" stroke-linejoin="round" stroke-miterlimit="10" x1="16" y1="65.9" x2="156" y2="65.9"/>
<g opacity="0.44">
	
		<line fill="none" stroke="#000000" stroke-width="4" stroke-linecap="round" stroke-linejoin="round" x1="85.9" y1="65.9" x2="116.2" y2="110.9"/>
</g>
<line fill="none" stroke="#AA2322" stroke-width="4" stroke-linecap="round" stroke-linejoin="round" stroke-miterlimit="10" x1="86" y1="21.2" x2="86" y2="66.3"/>
<path fill="#333333" d="M127.4,87.1l-1.7,3.9c-0.7,1.5-0.8,2.2-0.4,2.9c0.2,0.4,0.5,0.7,0.7,0.8c0.2,0.2,0.3,0.3,0.2,0.4
	c-0.1,0.2-0.3,0.2-0.5,0c-0.4-0.2-2.6-1.8-2.8-2c-0.3-0.2-0.4-0.4-0.3-0.5c0.1-0.2,0.4-0.4,0.8-1c0.4-0.7,0.9-1.7,1.3-2.5l4.9-10.6
	c0.4-0.8,0.6-1.4,0.7-1.8c0.1-0.4,0.2-0.7,0.2-0.8c0.1-0.2,0.2-0.1,0.6,0c0.5,0.2,2.4,1.2,3,1.5c0.3,0.2,0.4,0.3,0.3,0.4
	c-0.1,0.2-0.2,0.2-0.6,0.1l-0.3-0.1c-0.7-0.2-1.8,0.1-2.9,2.4l-1.6,3.3l10.2,4.7c2.3,1.1,4.3,2,5.5,2.3c0.8,0.2,1.3,0.3,1.8-0.4
	c0.2-0.3,0.5-0.9,0.7-1.3c0.1-0.3,0.3-0.3,0.5-0.3c0.2,0.1,0.2,0.3,0,0.6c-0.8,1.7-1.7,3.4-2,4.2c-0.3,0.6-1,2.4-1.5,3.4
	c-0.2,0.3-0.3,0.5-0.5,0.4c-0.1-0.1-0.2-0.2-0.1-0.5c0.2-0.4,0.3-0.7,0.3-1c0.1-0.6-0.3-1-1-1.4c-1-0.6-3-1.5-5.3-2.6L127.4,87.1z"
	/>
<path fill="#333333" d="M106.9,118.4c-2.6-3.9-3.3-10.9,3.9-15.7c6-4,12-3.2,15.5,2s2.5,12-3.6,16.1
	C115.7,125.6,109.6,122.5,106.9,118.4z M123.3,108c-3.4-5.1-8.6-6.2-12.4-3.6c-2.7,1.8-4.8,5.3-1,11c3.2,4.7,8.4,6.6,12.9,3.6
	C124.5,117.9,127.7,114.5,123.3,108z"/>
<path fill="#333333" d="M77.1,118.6c0.1-4.2,0.1-5,0.1-5.9c0-0.9-0.3-1.2-1.2-1.5c-0.2-0.1-0.7-0.1-1.1-0.1c-0.3,0-0.5-0.1-0.5-0.3
	c0-0.2,0.2-0.3,0.7-0.2c1.5,0,3.3,0.1,4.1,0.1c0.9,0,2.9,0,4.7,0c3.6,0.1,8.4,0.1,11.5,3.4c1.4,1.5,2.6,3.8,2.6,7.1
	c-0.1,3.5-1.6,6.1-3.3,7.7c-1.3,1.3-4.4,3.2-9.7,3.1c-1,0-2.3-0.1-3.4-0.2c-1.1-0.1-2.2-0.2-2.9-0.2c-0.3,0-0.9,0-1.6,0
	c-0.7,0-1.4,0-2,0c-0.4,0-0.6-0.1-0.5-0.3c0-0.1,0.1-0.3,0.5-0.3c0.4,0,0.8,0,1-0.1c0.6-0.1,0.8-0.6,0.9-1.5
	c0.1-1.2,0.2-3.4,0.2-5.9L77.1,118.6z M80.9,121.7c0,2.9,0,5.1,0,5.6c0,0.7,0.1,1.7,0.3,2c0.4,0.5,1.5,1.1,3.7,1.2
	c2.6,0,4.5-0.4,6.3-1.8c1.9-1.5,2.5-4,2.6-6.8c0.1-3.5-1.3-5.8-2.6-7c-2.6-2.4-5.7-2.7-8-2.8c-0.6,0-1.5,0-1.8,0.2
	c-0.3,0.1-0.4,0.2-0.4,0.5c0,0.9-0.1,3.2-0.1,5.4L80.9,121.7z"/>
<path fill="#333333" d="M45.3,105.1c2.6-3.9,8.8-7.1,16.1-2.3c6,4.1,7.5,9.9,3.9,15.2s-10.2,6.8-16.3,2.7
	C42,116,42.5,109.2,45.3,105.1z M61.2,116.4c3.4-5.1,2.5-10.3-1.3-12.9c-2.6-1.8-6.7-2.5-10.5,3.2c-3.2,4.7-3,10.3,1.5,13.3
	C52.4,121.2,56.8,123,61.2,116.4z"/>
<path fill="#333333" d="M31.8,101.2c-0.7,0.3-0.7,0.3-1,0.1c-1.7-1.4-3.1-3.8-4-5.9C23.8,89,24.1,82,31.1,78.8
	c4-1.8,7.8-0.9,10.3,0.8c2.6,1.8,3.8,4.1,4.8,6.3c0.8,1.8,1.6,4.2,1.7,4.8c0.2,0.6,0.4,1.6,0.7,2.2c0.1,0.3,0,0.4-0.1,0.5
	c-0.3,0.1-1.1,0.3-4.2,1.7c-0.4,0.2-0.6,0.1-0.7-0.1c-0.1-0.2,0-0.3,0.2-0.4c0.5-0.3,1.3-0.8,1.7-1.8c0.5-1.1,0.7-3.6-0.6-6.5
	c-0.6-1.4-1.5-3.2-3.8-4.4c-1.8-0.9-4.2-1-7.2,0.4c-5.4,2.5-7.8,7.8-5.3,13.3c0.3,0.7,0.6,1.2,1.1,1.7c0.4,0.3,0.7,0.3,1.1,0.1
	l2.3-1.1c1.2-0.6,2.2-1,3-1.4c0.8-0.4,1-0.8,0.9-1.7c0-0.2-0.2-0.7-0.4-1.1c-0.1-0.2-0.1-0.5,0.1-0.5c0.2-0.1,0.3,0.1,0.5,0.5
	c0.6,1.4,1.4,3.3,1.8,4c0.4,0.8,1.1,2.2,1.4,3c0.2,0.4,0.2,0.5,0,0.6c-0.1,0.1-0.3,0-0.4-0.2c-0.1-0.2-0.2-0.4-0.4-0.7
	c-0.4-0.7-0.9-0.8-1.8-0.4c-0.8,0.3-1.8,0.8-3,1.3L31.8,101.2z"/>
</svg>
