<svg xmlns="http://www.w3.org/2000/svg" width="0" height="0" viewBox="0 0 0 0"><title>Neo4j Graph Visualization</title><desc>Created using Neo4j (http://www.neo4j.com/)</desc><g class="layer relationships"><g class="relationship" transform="translate(244.02150739967794 100.10302424249493) rotate(180.3937669918614)"><path class="outline" fill="#A5ABB6" stroke="none" d="M 40 4 L 92.20214498368296 4 L 92.20214498368296 -4 L 40 -4 Z M 166.24120748368296 4 L 218.4433524673659 4 L 218.4433524673659 7 L 232.4433524673659 0 L 218.4433524673659 -7 L 218.4433524673659 -4 L 166.24120748368296 -4 Z"/><text text-anchor="middle" pointer-events="none" font-size="8px" fill="#000000" x="129.22167623368296" y="3" transform="rotate(180 129.22167623368296 0)" font-family="sans-serif">hasCalendarPartial</text></g><g class="relationship" transform="translate(-28.415411115019417 98.23066373407116) rotate(360.2544913382138)"><path class="outline" fill="#A5ABB6" stroke="none" d="M 14.216465109257104 37.601756871152645 L 24.569226913357937 76.23878992271537 A 25.435935394489817 25.435935394489817 0 1 1 -24.569226913357937 76.23878992271537 L -17.839931740692393 51.124718439199604 L -7.214747651512643 53.97172793532733 L -10.352761804100831 38.63703305156273 L -20.737709219559598 50.34826130389204 L -10.112525130379847 53.19527080001977 L -16.841820303045388 78.30934228353554 A 17.435935394489817 17.435935394489817 0 1 0 16.841820303045388 78.30934228353554 L 6.489058498944558 39.67230923197281 Z"/><text text-anchor="middle" pointer-events="none" font-size="8px" fill="#000000" x="0" y="117.25802982729645" font-family="sans-serif">hasCalendarPar…</text></g><g class="relationship" transform="translate(107.26189677497901 -50.22013354726022) rotate(492.4258985527951)"><path class="outline" fill="#A5ABB6" stroke="none" d="M 40 4 L 56.53638738453435 4 L 56.53638738453435 -4 L 40 -4 Z M 130.57544988453435 4 L 147.1118372690687 4 L 147.1118372690687 7 L 161.1118372690687 0 L 147.1118372690687 -7 L 147.1118372690687 -4 L 130.57544988453435 -4 Z"/><text text-anchor="middle" pointer-events="none" font-size="8px" fill="#000000" x="93.55591863453435" y="3" transform="rotate(180 93.55591863453435 0)" font-family="sans-serif">hasCalendarPartial</text></g><g class="relationship" transform="translate(440.53999626406653 26.44632402641554) rotate(519.4536003154265)"><path class="outline" fill="#A5ABB6" stroke="none" d="M 40 4 L 48.61203042765408 4 L 48.61203042765408 -4 L 40 -4 Z M 147.25656167765408 4 L 155.86859210530815 4 L 155.86859210530815 7 L 169.86859210530815 0 L 155.86859210530815 -7 L 155.86859210530815 -4 L 147.25656167765408 -4 Z"/><text text-anchor="middle" pointer-events="none" font-size="8px" fill="#000000" x="97.93429605265408" y="3" transform="rotate(180 97.93429605265408 0)" font-family="sans-serif">hasYearReferenceSystem</text></g><g class="relationship" transform="translate(244.02150739967794 100.10302424249493) rotate(349.92368365364393)"><path class="outline" fill="#A5ABB6" stroke="none" d="M 14.216465109257104 37.601756871152645 L 24.569226913357937 76.23878992271537 A 25.435935394489817 25.435935394489817 0 1 1 -24.569226913357937 76.23878992271537 L -17.839931740692393 51.124718439199604 L -7.214747651512643 53.97172793532733 L -10.352761804100831 38.63703305156273 L -20.737709219559598 50.34826130389204 L -10.112525130379847 53.19527080001977 L -16.841820303045388 78.30934228353554 A 17.435935394489817 17.435935394489817 0 1 0 16.841820303045388 78.30934228353554 L 6.489058498944558 39.67230923197281 Z"/><text text-anchor="middle" pointer-events="none" font-size="8px" fill="#000000" x="0" y="117.25802982729645" font-family="sans-serif">hasYearReferen…</text></g><g class="relationship" transform="translate(244.02150739967794 100.10302424249493) rotate(227.70499182806464)"><path class="outline" fill="#A5ABB6" stroke="none" d="M 40 4 L 60.25683718056003 4 L 60.25683718056003 -4 L 40 -4 Z M 128.96777468056 4 L 149.22461186112005 4 L 149.22461186112005 7 L 163.22461186112005 0 L 149.22461186112005 -7 L 149.22461186112005 -4 L 128.96777468056 -4 Z"/><text text-anchor="middle" pointer-events="none" font-size="8px" fill="#000000" x="94.61230593056003" y="3" transform="rotate(180 94.61230593056003 0)" font-family="sans-serif">hasCalendarType</text></g><g class="relationship" transform="translate(-262.8226424876557 97.75929522730434) rotate(539.98078424151)"><path class="outline" fill="#A5ABB6" stroke="none" d="M 40 4 L 79.0072562319761 4 L 79.0072562319761 -4 L 40 -4 Z M 135.7064749819761 4 L 174.7137312139522 4 L 174.7137312139522 7 L 188.7137312139522 0 L 174.7137312139522 -7 L 174.7137312139522 -4 L 135.7064749819761 -4 Z"/><text text-anchor="middle" pointer-events="none" font-size="8px" fill="#000000" x="107.3568656069761" y="3" transform="rotate(180 107.3568656069761 0)" font-family="sans-serif">hasAttestation</text></g><g class="relationship" transform="translate(-28.415411115019417 98.23066373407116) rotate(180.1152156845663)"><path class="outline" fill="#A5ABB6" stroke="none" d="M 40 4 L 84.74877452931104 4 L 84.74877452931104 -4 L 40 -4 Z M 135.65893077931105 4 L 180.40770530862207 4 L 180.40770530862207 7 L 194.40770530862207 0 L 180.40770530862207 -7 L 180.40770530862207 -4 L 135.65893077931105 -4 Z"/><text text-anchor="middle" pointer-events="none" font-size="8px" fill="#000000" x="110.20385265431104" y="3" transform="rotate(180 110.20385265431104 0)" font-family="sans-serif">hasGodotUri</text></g></g><g class="layer nodes"><g class="node" transform="translate(440.53999626406653,26.44632402641554)"><circle class="outline" cx="0" cy="0" r="40" fill="#FB95AF" stroke="#E0849B" stroke-width="2px"/><text text-anchor="middle" pointer-events="none" font-family="sans-serif" dy="2.5" font-size="40" fill="#FFFFFF"/><text text-anchor="middle" pointer-events="none" y="5" font-size="10px" fill="#FFFFFF" font-family="sans-serif"> Timeline</text></g><g class="node" transform="translate(-28.415411115019417,98.23066373407116)"><circle class="outline" cx="0" cy="0" r="40" fill="#FF756E" stroke="#E06760" stroke-width="2px"/><text text-anchor="middle" pointer-events="none" font-family="sans-serif" dy="2.5" font-size="40" fill="#FFFFFF"/><text text-anchor="middle" pointer-events="none" y="5" font-size="10px" fill="#FFFFFF" font-family="sans-serif"> CalendarPartial</text></g><g class="node" transform="translate(-262.8226424876557,97.75929522730434)"><circle class="outline" cx="0" cy="0" r="40" fill="#6DCE9E" stroke="#60B58B" stroke-width="2px"/><text text-anchor="middle" pointer-events="none" font-family="sans-serif" dy="2.5" font-size="40" fill="#FFFFFF"/><text text-anchor="middle" pointer-events="none" y="5" font-size="10px" fill="#FFFFFF" font-family="sans-serif"> GODOT</text></g><g class="node" transform="translate(-491.5363608389109,97.83600083768805)"><circle class="outline" cx="0" cy="0" r="40" fill="#FFD86E" stroke="#EDBA39" stroke-width="2px"/><text text-anchor="middle" pointer-events="none" font-family="sans-serif" dy="2.5" font-size="40" fill="#604A0E"/><text text-anchor="middle" pointer-events="none" y="5" font-size="10px" fill="#604A0E" font-family="sans-serif"> Attestation</text></g><g class="node" transform="translate(244.02150739967794,100.10302424249493)"><circle class="outline" cx="0" cy="0" r="40" fill="#DE9BF9" stroke="#BF85D6" stroke-width="2px"/><text text-anchor="middle" pointer-events="none" font-family="sans-serif" dy="2.5" font-size="40" fill="#FFFFFF"/><text text-anchor="middle" pointer-events="none" y="5" font-size="10px" fill="#FFFFFF" font-family="sans-serif"> YearReference…</text></g><g class="node" transform="translate(107.26189677497901,-50.22013354726022)"><circle class="outline" cx="0" cy="0" r="40" fill="#68BDF6" stroke="#5CA8DB" stroke-width="2px"/><text text-anchor="middle" pointer-events="none" font-family="sans-serif" dy="2.5" font-size="40" fill="#FFFFFF"/><text text-anchor="middle" pointer-events="none" y="5" font-size="10px" fill="#FFFFFF" font-family="sans-serif"> CalendarType</text></g></g></svg>